C:/Program Files/Krita (x64)/bin/ffmpeg.exe -hide_banner -y -y -r 10 -start_number 0 -start_number_range 1 -i C:/Users/bbybe/Desktop/anim/it/frame%04d.png -i C:/Users/bbybe/Desktop/anim/it/KritaTempPalettegen_%06d.png -lavfi [0:v][1:v]paletteuse=dither=sierra2_4a:diff_mode=none -f gif -loop 0 -gifflags +transdiff C:/Users/bbybe/Desktop/anim/it/it.gif
=====================================================
Input #0, image2, from 'C:/Users/bbybe/Desktop/anim/it/frame%04d.png':
  Duration: 00:00:00.40, start: 0.000000, bitrate: N/A
  Stream #0:0: Video: png, rgba(pc), 1261x1500 [SAR 11811:11811 DAR 1261:1500], 25 fps, 25 tbr, 25 tbn, 25 tbc
Input #1, image2, from 'C:/Users/bbybe/Desktop/anim/it/KritaTempPalettegen_%06d.png':
  Duration: 00:00:00.04, start: 0.000000, bitrate: N/A
  Stream #1:0: Video: png, rgba(pc), 16x16 [SAR 1:1 DAR 1:1], 25 fps, 25 tbr, 25 tbn, 25 tbc
Stream mapping:
  Stream #0:0 (png) -> paletteuse:default
  Stream #1:0 (png) -> paletteuse:palette
  paletteuse -> Stream #0:0 (gif)
Press [q] to stop, [?] for help
[image2 @ 000001fca8c8b980] Thread message queue blocking; consider raising the thread_queue_size option (current value: 8)
Output #0, gif, to 'C:/Users/bbybe/Desktop/anim/it/it.gif':
  Metadata:
    encoder         : Lavf58.76.100
  Stream #0:0: Video: gif, pal8(pc, gbr/unknown/unknown, progressive), 1261x1500 [SAR 1:1 DAR 1261:1500], q=2-31, 200 kb/s, 10 fps, 100 tbn (default)
    Metadata:
      encoder         : Lavc58.134.100 gif
frame=    1 fps=0.0 q=-0.0 size=       0kB time=00:00:00.01 bitrate=   0.0kbits/s speed=0.151x    frame=    7 fps=0.0 q=-0.0 size=     256kB time=00:00:00.61 bitrate=3438.0kbits/s speed=1.06x    frame=   10 fps=9.8 q=-0.0 Lsize=     694kB time=00:00:00.91 bitrate=6244.7kbits/s speed=0.89x    
video:694kB audio:0kB subtitle:0kB other streams:0kB global headers:0kB muxing overhead: 0.002816%
